<mxfile host="app.diagrams.net" modified="2023-11-15T16:32:10.040Z" agent="Mozilla/5.0 (Windows NT 10.0; Win64; x64) AppleWebKit/537.36 (KHTML, like Gecko) Chrome/119.0.0.0 Safari/537.36" version="22.1.1" etag="9TsXBaEfG04G-Cf7eXuF" type="github">
  <diagram name="PÃ¡gina-1" id="ZqvlLMndVHV8OCu5z0lb">
    <mxGraphModel>
      <root>
        <mxCell id="0" />
        <mxCell id="1" parent="0" />
      </root>
    </mxGraphModel>
  </diagram>
</mxfile>
